<?xml version="1.0"?>
<svg xmlns="http://www.w3.org/2000/svg" height="512px" viewBox="-102 0 512 512" width="512px"><g><path d="m287.5625 171.664062c-4.863281-38.726562-26.105469-72.148437-56.425781-93.367187l2.3125-18.296875h54.550781c5.523438 0 10-4.476562 10-10v-40c0-5.523438-4.476562-10-10-10h-70.351562c-21.148438 0-39.097657 15.820312-41.746094 36.804688l-2.351563 18.609374c-6.390625-.929687-12.914062-1.414062-19.550781-1.414062-68.234375 0-125.183594 50.96875-133.5625 117.664062-11.441406 1.03125-20.4375 10.667969-20.4375 22.371094v31.359375c0 5.523438 4.476562 10 10 10h10.941406l35.425782 267.917969c.660156 4.972656 4.898437 8.6875 9.914062 8.6875h175.777344c5.015625 0 9.253906-3.714844 9.914062-8.6875l35.425782-267.917969h10.601562c5.523438 0 10-4.476562 10-10v-31.359375c0-11.707031-8.996094-21.34375-20.4375-22.371094zm-20.199219-.097656h-48.015625l8.882813-70.28125c20.585937 17.5 34.945312 42.167969 39.132812 70.28125zm-76.757812-91.582031c6.652343 2.242187 13.039062 5.078125 19.089843 8.449219l-10.503906 83.132812h-20.160156zm5.136719-40.675781c1.394531-11.007813 10.808593-19.308594 21.90625-19.308594h60.351562v20h-53.367188c-5.039062 0-9.289062 3.746094-9.921874 8.746094l-2.34375 18.550781c-6.164063-2.96875-12.582032-5.484375-19.214844-7.496094zm-41.742188 34.691406c5.785156 0 11.476562.433594 17.039062 1.265625l-12.167968 96.300781h-17.203125c-5.523438 0-10 4.480469-10 10 0 5.523438 4.476562 10 10 10h136.742187.011719.015625 7.097656c1.359375 0 2.464844 1.109375 2.464844 2.46875v21.359375h-268v-21.359375c0-1.359375 1.105469-2.46875 2.464844-2.46875h39.203125c5.523437 0 10-4.476562 10-10 0-5.519531-4.476563-10-10-10h-21.03125c8.265625-55.496094 56.152343-97.566406 113.363281-97.566406zm28.757812 227.574219c-6.738281-3-13.019531-7.046875-18.628906-12.082031l6.835938-54.097657h20.15625zm-21.535156 10.917969c5.9375 3.960937 12.292969 7.171874 18.941406 9.621093l-14.8125 117.21875-19.84375-2.507812zm-10.417968-77.097657-4.929688 39.003907c-14.613281-9.394532-31.613281-14.453126-49.402344-14.453126-18.085937 0-35.363281 5.21875-50.136718 14.917969l-5.21875-39.46875zm82.488281 256.605469h-158.246094l-25.699219-194.34375c13.054688-11.445312 29.601563-17.714844 47.125-17.714844 17.253906 0 33.566406 6.082032 46.527344 17.203125l-18.589844 147.09375c-.691406 5.480469 3.1875 10.480469 8.667969 11.175781l39.683594 5.015626c.417969.050781.839843.078124 1.253906.078124 2.210937 0 4.367187-.730468 6.128906-2.097656 2.097657-1.625 3.460938-4.019531 3.792969-6.648437l15.777344-124.835938c4 .527344 8.058594.820313 12.164062.820313 15.898438 0 31.167969-4.046875 44.667969-11.613282zm26.839843-202.960938c-13.222656 12.085938-30.226562 18.707032-48.253906 18.707032-3.257812 0-6.480468-.234375-9.65625-.660156l9.058594-71.691407h55.945312zm0 0" data-original="#000000" class="active-path" data-old_color="#000000" fill="#FFFFFF"/><path d="m101.671875 191.570312c2.628906 0 5.207031-1.070312 7.066406-2.929687 1.863281-1.859375 2.933594-4.441406 2.933594-7.070313 0-2.628906-1.070313-5.210937-2.933594-7.070312-1.859375-1.871094-4.4375-2.929688-7.066406-2.929688-2.640625 0-5.210937 1.058594-7.082031 2.929688-1.859375 1.859375-2.917969 4.441406-2.917969 7.070312 0 2.628907 1.058594 5.210938 2.917969 7.070313 1.871094 1.859375 4.441406 2.929687 7.082031 2.929687zm0 0" data-original="#000000" class="active-path" data-old_color="#000000" fill="#FFFFFF"/></g> </svg>
